<svg width="236" height="236" viewBox="0 0 236 236" fill="none" xmlns="http://www.w3.org/2000/svg">
<path fill-rule="evenodd" clip-rule="evenodd" d="M125.489 0C126.319 0 127.097 0.221891 127.767 0.609575V0.421314C187.978 5.50603 235.261 55.9888 235.261 117.515C235.261 182.417 182.647 235.03 117.746 235.03C52.8438 235.03 0.230469 182.417 0.230469 117.515C0.230469 90.8693 9.09879 66.2947 24.0449 46.5821L30.8341 52.7112C17.3336 70.7881 9.34017 93.2181 9.34017 117.515C9.34017 177.386 57.8749 225.921 117.746 225.921C177.616 225.921 226.151 177.386 226.151 117.515C226.151 61.8027 184.124 15.9062 130.044 9.79963V128.447V133.002H125.489H49.4229C46.9073 133.002 44.868 130.962 44.868 128.447C44.868 125.931 46.9073 123.892 49.4229 123.892H120.934V4.55485C120.934 2.03928 122.973 0 125.489 0ZM50.3335 34.1613C50.3335 37.4316 47.6824 40.0826 44.4122 40.0826C41.1419 40.0826 38.4909 37.4316 38.4909 34.1613C38.4909 30.8911 41.1419 28.24 44.4122 28.24C47.6824 28.24 50.3335 30.8911 50.3335 34.1613ZM57.6213 34.1613C57.6213 41.4565 51.7074 47.3704 44.4122 47.3704C37.117 47.3704 31.2031 41.4565 31.2031 34.1613C31.2031 26.8662 37.117 20.9523 44.4122 20.9523C51.7074 20.9523 57.6213 26.8662 57.6213 34.1613Z" fill="#175CFF"/>
</svg>
