<svg width="236" height="236" viewBox="0 0 236 236" fill="none" xmlns="http://www.w3.org/2000/svg">
<path fill-rule="evenodd" clip-rule="evenodd" d="M202.579 185.613C217.623 167.001 226.632 143.31 226.632 117.515C226.632 57.6444 178.098 9.1097 118.227 9.1097C58.3564 9.1097 9.82161 57.6444 9.82161 117.515C9.82161 158.25 32.2898 193.738 65.5095 212.261C47.011 196.065 35.3291 172.274 35.3291 145.755C35.3291 118.889 47.3188 94.8232 66.2395 78.6167L70.1315 87.3387C54.339 101.826 44.4388 122.635 44.4388 145.755C44.4388 189.526 79.9222 225.009 123.693 225.009C167.464 225.009 202.948 189.526 202.948 145.755C202.948 103.553 169.962 69.0547 128.366 66.6362L124.241 57.3927C172.791 57.6876 212.057 97.1358 212.057 145.755C212.057 160.095 208.641 173.638 202.579 185.613ZM118.227 235.03C183.129 235.03 235.742 182.417 235.742 117.515C235.742 52.6133 183.129 0 118.227 0C53.3252 0 0.711914 52.6133 0.711914 117.515C0.711914 182.417 53.3252 235.03 118.227 235.03ZM99.5518 76.5218C103.325 76.5218 106.384 73.4629 106.384 69.6895C106.384 65.9162 103.325 62.8573 99.5518 62.8573C95.7785 62.8573 92.7196 65.9162 92.7196 69.6895C92.7196 73.4629 95.7785 76.5218 99.5518 76.5218ZM99.5518 82.8986C106.847 82.8986 112.761 76.9847 112.761 69.6895C112.761 62.3944 106.847 56.4805 99.5518 56.4805C92.2567 56.4805 86.3428 62.3944 86.3428 69.6895C86.3428 76.9847 92.2567 82.8986 99.5518 82.8986Z" fill="#175CFF"/>
</svg>
