<svg width="243" height="229" viewBox="0 0 243 229" fill="none" xmlns="http://www.w3.org/2000/svg">
<path fill-rule="evenodd" clip-rule="evenodd" d="M169.288 176.257C210.895 169.091 242.548 132.831 242.548 89.1785C242.548 40.3764 202.987 0.814453 154.184 0.814453C118.228 0.814453 87.2876 22.2903 73.4905 53.1148C31.884 60.2808 0.230469 96.5404 0.230469 140.193C0.230469 188.995 39.7924 228.557 88.5945 228.557C124.551 228.557 155.491 207.081 169.288 176.257ZM173.08 166.166C207.728 157.692 233.439 126.438 233.439 89.1785C233.439 45.4075 197.955 9.92415 154.184 9.92415C123.875 9.92415 97.5398 26.938 84.2077 51.936C85.661 51.865 87.1236 51.829 88.5945 51.829C137.397 51.829 176.959 91.391 176.959 140.193C176.959 149.232 175.601 157.954 173.08 166.166ZM69.6992 63.2051C67.1775 71.4175 65.8203 80.1395 65.8203 89.1785C65.8203 112.229 74.6464 133.218 89.1033 148.951L94.356 141.159C82.2557 127.244 74.93 109.067 74.93 89.1785C74.93 79.4074 76.6983 70.0493 79.9322 61.4067C82.7772 61.0974 85.6673 60.9387 88.5945 60.9387C132.366 60.9387 167.849 96.4221 167.849 140.193C167.849 183.964 132.366 219.447 88.5945 219.447C44.8236 219.447 9.34017 183.964 9.34017 140.193C9.34017 102.934 35.0513 71.6797 69.6992 63.2051ZM103.17 160.234C105.685 160.234 107.725 158.195 107.725 155.68C107.725 153.164 105.685 151.125 103.17 151.125C100.654 151.125 98.6151 153.164 98.6151 155.68C98.6151 158.195 100.654 160.234 103.17 160.234ZM103.17 166.611C109.207 166.611 114.102 161.717 114.102 155.68C114.102 149.642 109.207 144.748 103.17 144.748C97.1325 144.748 92.2383 149.642 92.2383 155.68C92.2383 161.717 97.1325 166.611 103.17 166.611Z" fill="#175CFF"/>
</svg>
